<svg xmlns="http://www.w3.org/2000/svg" viewBox="0 0 24 24" width="24" height="24">
  <polyline points="3,6 3,18" fill="none" stroke="#000000" stroke-width="1.4" stroke-linecap="round" stroke-linejoin="round"/>
  <polyline points="3,6 8,12" fill="none" stroke="#000000" stroke-width="1.4" stroke-linecap="round" stroke-linejoin="round"/>
  <polyline points="3,18 8,12" fill="none" stroke="#000000" stroke-width="1.4" stroke-linecap="round" stroke-linejoin="round"/>
  <polyline points="8,12 12,12" fill="none" stroke="#000000" stroke-width="1.4" stroke-linecap="round" stroke-linejoin="round"/>
  <polyline points="12,12 16,12" fill="none" stroke="#000000" stroke-width="1.4" stroke-linecap="round" stroke-linejoin="round"/>
  <polyline points="16,12 21,6" fill="none" stroke="#000000" stroke-width="1.4" stroke-linecap="round" stroke-linejoin="round"/>
  <polyline points="16,12 21,18" fill="none" stroke="#000000" stroke-width="1.4" stroke-linecap="round" stroke-linejoin="round"/>
  <polyline points="21,6 21,18" fill="none" stroke="#000000" stroke-width="1.4" stroke-linecap="round" stroke-linejoin="round"/>
  <polyline points="12,2 12,8" fill="none" stroke="#E8872B" stroke-width="1.5" stroke-linecap="round" stroke-linejoin="round" stroke-dasharray="1.2 2.2"/>
  <polyline points="12,16 12,22" fill="none" stroke="#E8872B" stroke-width="1.5" stroke-linecap="round" stroke-linejoin="round" stroke-dasharray="1.2 2.2"/>
  <circle cx="3" cy="6" r="2.4" fill="#000000"/>
  <circle cx="3" cy="6" r="1.2" fill="#FFFFFF"/>
  <circle cx="3" cy="18" r="2.4" fill="#000000"/>
  <circle cx="3" cy="18" r="1.2" fill="#FFFFFF"/>
  <circle cx="8" cy="12" r="2.4" fill="#000000"/>
  <circle cx="8" cy="12" r="1.2" fill="#FFFFFF"/>
  <circle cx="12" cy="12" r="3.2" fill="#000000"/>
  <circle cx="12" cy="12" r="2" fill="#E8872B"/>
  <circle cx="16" cy="12" r="2.4" fill="#000000"/>
  <circle cx="16" cy="12" r="1.2" fill="#FFFFFF"/>
  <circle cx="21" cy="6" r="2.4" fill="#000000"/>
  <circle cx="21" cy="6" r="1.2" fill="#FFFFFF"/>
  <circle cx="21" cy="18" r="2.4" fill="#000000"/>
  <circle cx="21" cy="18" r="1.2" fill="#FFFFFF"/>
</svg>
