<svg xmlns="http://www.w3.org/2000/svg" viewBox="0 0 24 24" width="24" height="24">
  <polyline points="2,5 22,5" fill="none" stroke="#8C8C8C" stroke-width="1" stroke-linecap="round" stroke-linejoin="round" stroke-dasharray="1 2.2"/>
  <polyline points="2,12 22,12" fill="none" stroke="#8C8C8C" stroke-width="1" stroke-linecap="round" stroke-linejoin="round" stroke-dasharray="1 2.2"/>
  <polyline points="2,19 22,19" fill="none" stroke="#8C8C8C" stroke-width="1" stroke-linecap="round" stroke-linejoin="round" stroke-dasharray="1 2.2"/>
  <polyline points="12,5 9.41,8.3" fill="none" stroke="#000000" stroke-width="1.3" stroke-linecap="round" stroke-linejoin="round"/>
  <polygon points="8.04,10.04 8.38,7 10.91,8.99" fill="#000000"/>
  <polyline points="12,5 14.59,8.3" fill="none" stroke="#000000" stroke-width="1.3" stroke-linecap="round" stroke-linejoin="round"/>
  <polygon points="15.96,10.04 13.09,8.99 15.62,7" fill="#000000"/>
  <polyline points="6.5,12 5.44,14.96" fill="none" stroke="#000000" stroke-width="1.3" stroke-linecap="round" stroke-linejoin="round"/>
  <polygon points="4.7,17.04 4.06,14.05 7.09,15.13" fill="#000000"/>
  <polyline points="6.5,12 9.09,15.3" fill="none" stroke="#000000" stroke-width="1.3" stroke-linecap="round" stroke-linejoin="round"/>
  <polygon points="10.46,17.04 7.59,15.99 10.12,14" fill="#000000"/>
  <polyline points="17.5,12 14.91,15.3" fill="none" stroke="#000000" stroke-width="1.3" stroke-linecap="round" stroke-linejoin="round"/>
  <polygon points="13.54,17.04 13.88,14 16.41,15.99" fill="#000000"/>
  <polyline points="17.5,12 18.56,14.96" fill="none" stroke="#000000" stroke-width="1.3" stroke-linecap="round" stroke-linejoin="round"/>
  <polygon points="19.3,17.04 16.91,15.13 19.94,14.05" fill="#000000"/>
  <circle cx="12" cy="5" r="2.6" fill="#000000"/>
  <circle cx="12" cy="5" r="1.4" fill="#E8872B"/>
  <circle cx="6.5" cy="12" r="2.6" fill="#000000"/>
  <circle cx="6.5" cy="12" r="1.4" fill="#2473C0"/>
  <circle cx="17.5" cy="12" r="2.6" fill="#000000"/>
  <circle cx="17.5" cy="12" r="1.4" fill="#2473C0"/>
  <circle cx="4" cy="19" r="2.6" fill="#000000"/>
  <circle cx="4" cy="19" r="1.4" fill="#2E9E6B"/>
  <circle cx="12" cy="19" r="2.6" fill="#000000"/>
  <circle cx="12" cy="19" r="1.4" fill="#2E9E6B"/>
  <circle cx="20" cy="19" r="2.6" fill="#000000"/>
  <circle cx="20" cy="19" r="1.4" fill="#2E9E6B"/>
</svg>
