<svg xmlns="http://www.w3.org/2000/svg" viewBox="0 0 24 24" width="24" height="24">
  <polyline points="3,21 3,5" fill="none" stroke="#000000" stroke-width="2.2" stroke-linecap="round" stroke-linejoin="round"/>
  <polyline points="3,5 10,5" fill="none" stroke="#000000" stroke-width="2.2" stroke-linecap="round" stroke-linejoin="round"/>
  <polyline points="6.5,5 6.5,12" fill="none" stroke="#8C8C8C" stroke-width="1.4" stroke-linecap="round" stroke-linejoin="round"/>
  <circle cx="3" cy="5" r="2.4" fill="#000000"/>
  <circle cx="3" cy="5" r="1.2" fill="#2473C0"/>
  <circle cx="3" cy="21" r="2.2" fill="#000000"/>
  <circle cx="3" cy="21" r="1" fill="#FFFFFF"/>
  <polyline points="11,12 11.12,12" fill="none" stroke="#000000" stroke-width="1.5" stroke-linecap="round" stroke-linejoin="round"/>
  <polygon points="13.5,12 10.7,13.74 10.7,10.26" fill="#000000"/>
  <polygon points="15.5,4.6 22,4.6 22,7.4 15.5,7.4" fill="#2473C0"/>
  <polygon points="15.5,10.6 22,10.6 22,13.4 15.5,13.4" fill="#2473C0"/>
  <polygon points="15.5,16.6 22,16.6 22,19.4 15.5,19.4" fill="#2473C0"/>
</svg>
