<svg xmlns="http://www.w3.org/2000/svg" viewBox="0 0 24 24" width="24" height="24">
  <polygon points="13.5,6 13.89,6.05 14.25,6.2 14.56,6.44 14.8,6.75 14.95,7.11 15,7.5 15,16.5 14.95,16.89 14.8,17.25 14.56,17.56 14.25,17.8 13.89,17.95 13.5,18 3.5,18 3.11,17.95 2.75,17.8 2.44,17.56 2.2,17.25 2.05,16.89 2,16.5 2,7.5 2.05,7.11 2.2,6.75 2.44,6.44 2.75,6.2 3.11,6.05 3.5,6" fill="none" stroke="#000000" stroke-width="1.5" stroke-linecap="round" stroke-linejoin="round"/>
  <polyline points="5.5,14.5 8.5,9.5 11.5,14.5" fill="none" stroke="#000000" stroke-width="1.1" stroke-linecap="round" stroke-linejoin="round"/>
  <circle cx="5.5" cy="14.5" r="1.3" fill="#2473C0"/>
  <circle cx="8.5" cy="9.5" r="1.3" fill="#2473C0"/>
  <circle cx="11.5" cy="14.5" r="1.3" fill="#2473C0"/>
  <polyline points="15.5,12 20.45,12" fill="none" stroke="#000000" stroke-width="1.8" stroke-linecap="round" stroke-linejoin="round"/>
  <polygon points="23,12 20,13.86 20,10.14" fill="#000000"/>
</svg>
