<svg xmlns="http://www.w3.org/2000/svg" viewBox="0 0 24 24" width="24" height="24">
  <polyline points="4,12 4.52,12.02 5.04,12.07 5.56,12.15 6.07,12.27 6.57,12.42 7.06,12.61 7.54,12.83 8,13.07 8.44,13.35 8.87,13.65 9.27,13.99 9.66,14.34 10.01,14.73 10.35,15.13 10.65,15.56 10.93,16 11.17,16.46 11.39,16.94 11.58,17.43 11.73,17.93 11.85,18.44 11.93,18.96 11.98,19.48 12,20" fill="none" stroke="#8C8C8C" stroke-width="1.2" stroke-linecap="round" stroke-linejoin="round"/>
  <polyline points="4,5 4.98,5.03 5.96,5.13 6.93,5.29 7.88,5.51 8.82,5.8 9.74,6.14 10.63,6.55 11.5,7.01 12.33,7.53 13.13,8.1 13.89,8.72 14.61,9.39 15.28,10.11 15.9,10.87 16.47,11.67 16.99,12.5 17.45,13.37 17.86,14.26 18.2,15.18 18.49,16.12 18.71,17.07 18.87,18.04 18.97,19.02 19,20" fill="none" stroke="#8C8C8C" stroke-width="1.2" stroke-linecap="round" stroke-linejoin="round"/>
  <polyline points="4,20 4,2" fill="none" stroke="#8C8C8C" stroke-width="1.2" stroke-linecap="round" stroke-linejoin="round"/>
  <circle cx="4" cy="12" r="1.5" fill="#2473C0"/>
  <circle cx="4" cy="5" r="1.5" fill="#2473C0"/>
  <polyline points="4,20 13,4.41" fill="none" stroke="#8C8C8C" stroke-width="1.2" stroke-linecap="round" stroke-linejoin="round"/>
  <circle cx="8" cy="13.07" r="1.5" fill="#2473C0"/>
  <circle cx="11.5" cy="7.01" r="1.5" fill="#2473C0"/>
  <polyline points="4,20 19.59,11" fill="none" stroke="#8C8C8C" stroke-width="1.2" stroke-linecap="round" stroke-linejoin="round"/>
  <circle cx="10.93" cy="16" r="1.5" fill="#2473C0"/>
  <circle cx="16.99" cy="12.5" r="1.5" fill="#2473C0"/>
  <polyline points="4,20 22,20" fill="none" stroke="#8C8C8C" stroke-width="1.2" stroke-linecap="round" stroke-linejoin="round"/>
  <circle cx="12" cy="20" r="1.5" fill="#2473C0"/>
  <circle cx="19" cy="20" r="1.5" fill="#2473C0"/>
  <circle cx="4" cy="20" r="1.5" fill="#000000"/>
</svg>
