<svg xmlns="http://www.w3.org/2000/svg" viewBox="0 0 24 24" width="24" height="24">
  <polygon points="20.5,5.5 21.02,5.57 21.5,5.77 21.91,6.09 22.23,6.5 22.43,6.98 22.5,7.5 22.5,16.5 22.43,17.02 22.23,17.5 21.91,17.91 21.5,18.23 21.02,18.43 20.5,18.5 3.5,18.5 2.98,18.43 2.5,18.23 2.09,17.91 1.77,17.5 1.57,17.02 1.5,16.5 1.5,7.5 1.57,6.98 1.77,6.5 2.09,6.09 2.5,5.77 2.98,5.57 3.5,5.5" fill="none" stroke="#000000" stroke-width="1.5" stroke-linecap="round" stroke-linejoin="round"/>
  <polyline points="16.9,10.9 19,13.3 21.1,10.9" fill="none" stroke="#000000" stroke-width="1.5" stroke-linecap="round" stroke-linejoin="round"/>
  <polyline points="4,15.5 14,15.5" fill="none" stroke="#000000" stroke-width="1.5" stroke-linecap="round" stroke-linejoin="round"/>
  <polyline points="4,15.5 9,8.5 14,15.5" fill="none" stroke="#000000" stroke-width="1.5" stroke-linecap="round" stroke-linejoin="round"/>
  <polyline points="9,8.5 9,15.5" fill="none" stroke="#000000" stroke-width="1.2" stroke-linecap="round" stroke-linejoin="round"/>
  <circle cx="9" cy="8.5" r="1.6" fill="#2473C0"/>
</svg>
