<svg xmlns="http://www.w3.org/2000/svg" viewBox="0 0 24 24" width="24" height="24">
  <polygon points="12,8 12.39,8.05 12.75,8.2 13.06,8.44 13.3,8.75 13.45,9.11 13.5,9.5 13.5,14.5 13.45,14.89 13.3,15.25 13.06,15.56 12.75,15.8 12.39,15.95 12,16 3,16 2.61,15.95 2.25,15.8 1.94,15.56 1.7,15.25 1.55,14.89 1.5,14.5 1.5,9.5 1.55,9.11 1.7,8.75 1.94,8.44 2.25,8.2 2.61,8.05 3,8" fill="#2473C0"/>
  <polygon points="21,8 21.39,8.05 21.75,8.2 22.06,8.44 22.3,8.75 22.45,9.11 22.5,9.5 22.5,14.5 22.45,14.89 22.3,15.25 22.06,15.56 21.75,15.8 21.39,15.95 21,16 19,16 18.61,15.95 18.25,15.8 17.94,15.56 17.7,15.25 17.55,14.89 17.5,14.5 17.5,9.5 17.55,9.11 17.7,8.75 17.94,8.44 18.25,8.2 18.61,8.05 19,8" fill="#E8872B"/>
  <circle cx="5" cy="12" r="1.5" fill="#FFFFFF"/>
  <circle cx="10" cy="12" r="1.5" fill="#FFFFFF"/>
  <circle cx="20" cy="12" r="1.5" fill="#FFFFFF"/>
  <polyline points="15.5,3 15.5,21" fill="none" stroke="#000000" stroke-width="1.5" stroke-linecap="round" stroke-linejoin="round" stroke-dasharray="1.6 2.6"/>
</svg>
